<svg width="1503" height="363" viewBox="0 0 1503 363" fill="none" xmlns="http://www.w3.org/2000/svg">
<g clip-path="url(#clip0_620_11383)">
<path d="M1503 362.44C1503 362.741 1166.52 362.998 751.532 362.998C336.546 362.998 0 362.741 0 362.44C0 362.14 336.417 361.883 751.532 361.883C1166.65 361.883 1503 362.14 1503 362.44Z" fill="#263238"/>
<path d="M1361.8 252.979C1361.8 252.979 1304.93 187.546 1283.47 122.114C1262.01 56.681 1272.21 64.1872 1272.21 64.1872C1272.21 64.1872 1301.17 127.754 1323.18 158.444C1345.17 189.155 1384.35 234.192 1384.35 234.192L1361.82 252.957L1361.8 252.979Z" fill="#455A64"/>
<path d="M1373.13 74.3962C1371.29 71.2007 1366.42 72.8521 1366.97 76.4979C1370.45 99.4884 1377.94 153.404 1377.64 188.405C1377.25 233.849 1377.64 251.414 1377.64 251.414H1401.3C1401.3 251.414 1397.1 157.479 1391.75 128.827C1388 108.753 1380.04 86.449 1373.11 74.3962H1373.13Z" fill="#455A64"/>
<path d="M1386.03 243.777C1386.03 243.777 1400.92 212.465 1405.51 173.133C1407.46 156.405 1403.98 133.8 1398.81 103.625C1396.3 89.0205 1395.74 77.8898 1395.83 70.1906C1395.89 64.3572 1403.58 62.4699 1406.43 67.5527C1409.28 72.6569 1417.56 90.0499 1419.65 100.966C1425.37 130.755 1431.88 145.639 1426.9 173.905C1421.94 202.171 1403.6 245.686 1403.6 245.686L1386.03 243.777Z" fill="#455A64"/>
<path d="M1407.35 245.687C1407.35 245.687 1469.79 111.54 1474.12 91.6596C1478.45 71.7574 1493.17 25.9053 1494.89 28.5003C1496.63 31.0953 1499.22 55.3296 1487.96 83.0167C1476.72 110.704 1428.66 249.783 1428.66 249.783H1407.33" fill="#455A64"/>
<path d="M1379.2 239.681C1379.2 239.681 1378.58 239.295 1377.44 238.48C1376.33 237.644 1374.65 236.464 1372.62 234.792C1368.45 231.532 1362.62 226.556 1355.84 219.994C1342.21 206.911 1325.24 186.73 1310.55 161.874C1295.81 137.018 1285.89 112.719 1279.63 94.9189C1276.5 86.0187 1274.2 78.7269 1272.72 73.6442C1271.95 71.1135 1271.43 69.1404 1271.07 67.7893C1270.7 66.4382 1270.53 65.7305 1270.57 65.7305C1270.62 65.7305 1270.88 66.3953 1271.33 67.725C1271.8 69.1619 1272.42 71.092 1273.21 73.494C1274.84 78.5125 1277.27 85.7399 1280.53 94.5972C1287.01 112.269 1297.03 136.439 1311.7 161.188C1326.36 185.937 1343.11 206.118 1356.52 219.307C1363.2 225.956 1368.93 230.996 1372.98 234.384C1374.98 236.121 1376.61 237.365 1377.66 238.266C1378.73 239.167 1379.27 239.638 1379.25 239.681H1379.2Z" fill="#263238"/>
<path d="M1386.03 175.323C1386.03 175.323 1385.75 173.929 1385.47 171.377C1385.17 168.589 1384.78 164.986 1384.31 160.633C1383.32 151.561 1381.78 139.036 1379.57 125.289C1377.36 111.542 1374.89 99.1677 1372.98 90.246C1372.06 85.9568 1371.29 82.3967 1370.71 79.673C1370.17 77.1852 1369.91 75.7912 1370 75.7698C1370.08 75.7483 1370.51 77.0994 1371.2 79.5658C1371.91 82.0321 1372.83 85.6136 1373.9 90.053C1376.05 98.9318 1378.67 111.306 1380.88 125.096C1383.09 138.886 1384.48 151.432 1385.23 160.547C1385.62 165.094 1385.85 168.804 1385.96 171.356C1386.07 173.908 1386.09 175.323 1386 175.323H1386.03Z" fill="#263238"/>
<path d="M1400.66 66.4824C1400.66 66.4824 1400.96 67.0614 1401.39 68.1766C1401.86 69.442 1402.48 71.0933 1403.25 73.1522C1404.09 75.3183 1405.04 77.9776 1405.94 81.1302C1406.86 84.2828 1408.06 87.8214 1408.96 91.8748C1409.46 93.8907 1409.97 95.9925 1410.51 98.18C1411.02 100.368 1411.41 102.705 1411.88 105.086C1412.91 109.847 1413.53 115.015 1414.28 120.441C1415.51 131.315 1416.17 143.346 1415.76 155.999C1415.25 168.631 1413.72 180.598 1411.73 191.364C1410.59 196.726 1409.58 201.83 1408.23 206.505C1407.59 208.843 1407.05 211.138 1406.37 213.304C1405.68 215.448 1405.01 217.507 1404.37 219.48C1403.17 223.448 1401.73 226.901 1400.57 229.967C1399.44 233.056 1398.3 235.651 1397.33 237.731C1396.41 239.726 1395.68 241.334 1395.1 242.556C1394.59 243.65 1394.29 244.229 1394.24 244.208C1394.2 244.208 1394.42 243.586 1394.87 242.449C1395.36 241.205 1396.02 239.554 1396.86 237.517C1397.76 235.393 1398.83 232.777 1399.89 229.689C1400.96 226.6 1402.35 223.126 1403.49 219.159C1404.09 217.186 1404.74 215.127 1405.4 212.982C1406.04 210.837 1406.56 208.543 1407.18 206.205C1408.49 201.53 1409.43 196.447 1410.55 191.128C1412.46 180.405 1413.96 168.502 1414.45 155.956C1414.84 143.389 1414.22 131.422 1413.08 120.591C1412.35 115.187 1411.77 110.061 1410.81 105.3C1410.36 102.92 1410.01 100.603 1409.52 98.4159C1409 96.2284 1408.53 94.1267 1408.06 92.1107C1407.22 88.0788 1406.09 84.5187 1405.23 81.3661C1404.39 78.1921 1403.51 75.5113 1402.78 73.3237C1402.1 71.222 1401.56 69.5492 1401.15 68.2624C1400.79 67.1043 1400.62 66.4824 1400.66 66.4609V66.4824Z" fill="#263238"/>
<path d="M1494.18 31.1797C1494.18 31.1797 1494.18 31.3941 1494.14 31.7802C1494.07 32.252 1493.97 32.8311 1493.86 33.5173C1493.58 35.04 1493.24 37.3133 1492.64 40.1871C1491.43 45.9562 1489.42 54.2559 1486.31 64.3357C1483.2 74.4154 1478.93 86.2323 1473.86 99.2073C1468.82 112.204 1462.96 126.337 1457.43 141.392C1451.81 156.426 1447.47 171.095 1443.4 184.413C1439.36 197.732 1435.52 209.699 1431.83 219.585C1428.16 229.472 1424.64 237.257 1421.96 242.533C1420.68 245.192 1419.54 247.165 1418.79 248.538C1418.44 249.16 1418.14 249.653 1417.91 250.082C1417.71 250.425 1417.59 250.597 1417.56 250.575C1417.56 250.575 1417.63 250.382 1417.78 250.018C1417.99 249.589 1418.23 249.053 1418.53 248.431C1419.19 247.037 1420.27 245.021 1421.47 242.318C1423.98 237 1427.37 229.193 1430.91 219.285C1434.49 209.398 1438.23 197.431 1442.19 184.092C1446.21 170.774 1450.52 156.04 1456.16 140.963C1461.72 125.865 1467.62 111.732 1472.7 98.7784C1477.81 85.8463 1482.17 74.0937 1485.38 64.0783C1488.62 54.0629 1490.75 45.8275 1492.12 40.1013C1492.81 37.249 1493.24 34.9971 1493.6 33.4959C1493.77 32.8096 1493.9 32.252 1494.01 31.7802C1494.12 31.3941 1494.16 31.2011 1494.2 31.2011L1494.18 31.1797Z" fill="#263238"/>
<path d="M1301.64 1.54246C1297.72 -2.36077 1291.17 1.71403 1292.8 7.03271C1294.45 12.4157 1296.97 19.3643 1300.66 27.1922C1309.24 45.4216 1334.45 110.854 1346.27 146.798C1358.07 182.721 1374.7 249.762 1374.7 249.762L1399.91 245.666C1399.91 245.666 1376.84 135.517 1354.31 95.8204C1336.21 63.9297 1318.1 17.8416 1301.66 1.52101L1301.64 1.54246Z" fill="#455A64"/>
<path d="M1353.14 169.275C1353.14 169.275 1353.67 170.326 1354.44 172.299C1355.2 174.272 1356.2 177.168 1357.34 180.749C1359.66 187.934 1362.51 197.971 1365.36 209.123C1368.22 220.275 1370.6 230.419 1372.25 237.796C1373 241.271 1373.65 244.209 1374.14 246.525C1374.57 248.584 1374.74 249.742 1374.66 249.763C1374.57 249.785 1374.2 248.67 1373.63 246.632C1373 244.337 1372.23 241.442 1371.31 238.011C1369.38 230.44 1366.85 220.468 1364.03 209.444C1361.18 198.314 1358.48 188.255 1356.4 181.006C1355.41 177.597 1354.57 174.723 1353.91 172.428C1353.31 170.412 1353.01 169.275 1353.09 169.254L1353.14 169.275Z" fill="#263238"/>
<path d="M1387.33 247.724C1387.33 247.724 1387.27 247.488 1387.18 247.059C1387.1 246.545 1387.01 245.88 1386.9 245.065C1386.65 243.328 1386.41 240.733 1385.88 237.43C1384.95 230.803 1383.3 221.281 1380.6 209.636C1377.92 197.99 1373.99 184.308 1368.8 169.381C1363.63 154.454 1357.15 138.327 1349.79 121.641C1334.96 88.2925 1320.14 58.718 1310.42 36.8428C1305.5 25.9266 1301.69 17.0264 1299.17 10.8285C1297.89 7.74019 1296.99 5.29531 1296.34 3.66539C1296.06 2.89332 1295.83 2.29283 1295.63 1.77812C1295.48 1.34919 1295.42 1.13473 1295.44 1.11328C1295.46 1.11328 1295.57 1.3063 1295.76 1.71378C1295.98 2.20704 1296.26 2.80754 1296.58 3.53671C1297.33 5.25242 1298.34 7.61151 1299.65 10.614C1302.31 16.7476 1306.23 25.5835 1311.25 36.4353C1321.21 58.1819 1336.14 87.692 1350.99 121.084C1358.35 137.812 1364.81 153.982 1369.93 168.973C1375.06 183.964 1378.9 197.712 1381.5 209.421C1384.09 221.109 1385.62 230.696 1386.37 237.366C1386.82 240.69 1386.97 243.285 1387.16 245.043C1387.23 245.858 1387.27 246.523 1387.31 247.038C1387.33 247.488 1387.33 247.724 1387.31 247.724H1387.33Z" fill="#263238"/>
<path d="M1399.89 245.686C1399.89 245.686 1399.5 244.185 1399.03 241.461C1398.53 238.502 1397.87 234.598 1397.08 229.88C1395.34 220.122 1392.68 206.675 1388.88 192.049C1385.1 177.401 1380.86 164.362 1377.57 155.011C1375.96 150.507 1374.63 146.776 1373.63 143.945C1372.68 141.328 1372.21 139.87 1372.3 139.849C1372.38 139.806 1373.02 141.2 1374.12 143.773C1375.21 146.325 1376.71 150.057 1378.47 154.711C1381.97 163.997 1386.39 177.036 1390.19 191.727C1394.01 206.418 1396.52 219.929 1398.02 229.751C1398.73 234.663 1399.29 238.652 1399.56 241.418C1399.87 244.185 1399.99 245.708 1399.91 245.729L1399.89 245.686Z" fill="#263238"/>
<path d="M1451.61 242.062H1353.22V361.883H1451.61V242.062Z" fill="#91D509"/>
<path d="M1420.22 242.062H1332.95V361.883H1420.22V242.062Z" fill="#ABFF00"/>
<path d="M141.153 200.392C124.396 189.669 101.16 189.455 84.8544 200.864C69.3637 211.694 61.5111 231.382 62.1977 250.255C62.8843 269.128 72.0242 292.182 89.1454 302.112L139.351 301.919C155.378 290.124 166.234 271.144 166.985 251.263C167.736 231.382 157.931 211.137 141.174 200.414L141.153 200.392Z" fill="#455A64"/>
<path d="M116.437 303.915C116.33 303.915 116.223 302.371 116.116 299.604C116.03 296.516 115.922 292.57 115.772 287.83C115.515 277.9 115.129 264.175 114.464 249.012C113.798 233.85 112.983 220.145 112.361 210.237C112.082 205.519 111.846 201.573 111.653 198.485C111.503 195.697 111.481 194.174 111.589 194.153C111.696 194.131 111.932 195.675 112.275 198.42C112.618 201.187 113.026 205.197 113.477 210.152C114.378 220.06 115.386 233.785 116.051 248.948C116.716 264.11 116.931 277.857 116.888 287.809C116.888 292.784 116.802 296.816 116.716 299.583C116.631 302.371 116.523 303.893 116.416 303.893L116.437 303.915Z" fill="#263238"/>
<path d="M67.2614 245.988C67.2185 246.439 64.4937 246.567 61.1682 246.288C57.8426 246.01 55.1607 245.431 55.2036 245.002C55.2465 244.551 57.9714 244.423 61.2969 244.701C64.6225 244.98 67.3044 245.559 67.2614 245.988Z" fill="#263238"/>
<path d="M68.1841 229.044C68.0124 229.452 65.6524 228.808 62.9275 227.586C60.2027 226.385 58.143 225.077 58.3147 224.669C58.4863 224.262 60.8464 224.905 63.5712 226.127C66.296 227.328 68.3557 228.637 68.1841 229.044Z" fill="#263238"/>
<path d="M76.9155 216.477C76.6795 216.842 74.0405 215.598 71.2943 213.325C68.548 211.052 66.8102 208.692 67.132 208.392C67.4538 208.092 69.6422 209.893 72.3027 212.081C74.9631 214.29 77.1515 216.091 76.9155 216.477Z" fill="#263238"/>
<path d="M85.6702 204.619C85.2626 204.79 83.9967 202.817 82.8381 200.201C81.6795 197.584 81.0573 195.311 81.465 195.139C81.8726 194.968 83.1385 196.941 84.2971 199.557C85.4557 202.174 86.0779 204.447 85.6702 204.619Z" fill="#263238"/>
<path d="M99.4229 196.189C99.0367 196.382 97.6636 194.259 96.7624 191.342C95.8399 188.425 95.7755 185.916 96.2046 185.83C96.6552 185.745 97.4061 188.039 98.2858 190.849C99.1654 193.658 99.8305 195.975 99.4229 196.168V196.189Z" fill="#263238"/>
<path d="M122.38 186.711C122.788 186.861 122.551 188.662 121.801 190.721C121.071 192.801 120.127 194.345 119.719 194.217C119.312 194.067 119.548 192.265 120.299 190.206C121.028 188.126 121.972 186.582 122.38 186.711Z" fill="#263238"/>
<path d="M139.415 194.023C139.715 194.344 138.621 195.846 136.969 197.368C135.317 198.891 133.75 199.856 133.45 199.534C133.15 199.213 134.244 197.712 135.896 196.189C137.548 194.666 139.114 193.701 139.415 194.023Z" fill="#263238"/>
<path d="M154.392 203.695C154.649 204.06 153.297 205.39 151.409 206.676C149.521 207.963 147.783 208.692 147.526 208.328C147.269 207.963 148.599 206.633 150.508 205.347C152.396 204.06 154.134 203.331 154.392 203.695Z" fill="#263238"/>
<path d="M165.033 218.105C165.205 218.513 163.102 219.8 160.335 220.979C157.567 222.159 155.185 222.781 155.014 222.373C154.842 221.966 156.945 220.679 159.691 219.499C162.459 218.32 164.84 217.698 165.012 218.105H165.033Z" fill="#263238"/>
<path d="M169.216 233.85C169.28 234.279 167.135 234.922 164.453 235.244C161.771 235.587 159.54 235.48 159.497 235.051C159.454 234.622 161.578 233.979 164.26 233.657C166.942 233.314 169.173 233.421 169.216 233.85Z" fill="#263238"/>
<path d="M171.406 253.216C171.234 253.624 168.96 253.023 166.321 251.886C163.682 250.75 161.708 249.484 161.88 249.077C162.051 248.669 164.325 249.27 166.964 250.407C169.603 251.543 171.577 252.809 171.406 253.216Z" fill="#263238"/>
<path d="M169.496 269.835C169.346 270.243 166.471 269.556 163.467 267.583C160.442 265.632 158.661 263.273 158.983 262.972C159.304 262.651 161.493 264.388 164.346 266.232C167.179 268.098 169.646 269.406 169.496 269.835Z" fill="#263238"/>
<path d="M160.828 284.956C160.571 285.299 158.275 283.948 156.087 281.589C153.877 279.23 152.718 276.849 153.061 276.613C153.426 276.356 155.143 278.243 157.245 280.517C159.348 282.79 161.107 284.634 160.828 284.977V284.956Z" fill="#263238"/>
<path d="M78.6324 286.735C78.8469 287.121 76.4225 288.772 73.2686 290.423C70.0932 292.075 67.3684 293.083 67.1538 292.697C66.9393 292.311 69.3637 290.659 72.5176 289.008C75.693 287.357 78.4178 286.349 78.6324 286.735Z" fill="#263238"/>
<path d="M71.1237 273.051C71.3168 273.458 69.3858 274.724 66.8112 275.882C64.2581 277.04 62.0267 277.662 61.8336 277.254C61.6405 276.847 63.5715 275.582 66.1461 274.423C68.6993 273.265 70.9306 272.643 71.1237 273.051Z" fill="#263238"/>
<path d="M65.6096 260.934C65.6739 261.363 63.2924 262.071 60.3101 262.5C57.3279 262.929 54.8391 262.907 54.7747 262.478C54.7103 262.049 57.0919 261.342 60.0741 260.913C63.0564 260.484 65.5452 260.505 65.6096 260.934Z" fill="#263238"/>
<path d="M83.7178 254.246C83.8465 254.653 81.5294 255.747 78.4398 256.09C75.3503 256.455 72.8615 255.897 72.883 255.468C72.9044 255.018 75.3288 254.825 78.2467 254.482C81.1647 254.16 83.5676 253.795 83.6964 254.246H83.7178Z" fill="#263238"/>
<path d="M98.7585 239.295C98.8872 239.702 97.0421 240.646 94.5533 240.882C92.0645 241.139 90.0906 240.581 90.1335 240.152C90.1764 239.702 92.0859 239.53 94.4031 239.295C96.7202 239.08 98.6298 238.866 98.7585 239.295Z" fill="#263238"/>
<path d="M101.632 227.307C101.482 227.715 99.4868 227.414 97.1696 226.621C94.8525 225.827 93.0931 224.841 93.2433 224.412C93.3935 224.004 95.3888 224.305 97.706 225.098C100.023 225.892 101.782 226.878 101.632 227.307Z" fill="#263238"/>
<path d="M107.147 215.19C106.846 215.49 105.473 214.59 104.486 212.895C103.499 211.201 103.414 209.571 103.821 209.443C104.25 209.314 105.001 210.579 105.859 212.081C106.718 213.582 107.447 214.869 107.125 215.169L107.147 215.19Z" fill="#263238"/>
<path d="M100.496 264.796C100.603 265.225 98.8652 266.018 96.6338 266.554C95.3465 266.876 94.1665 267.026 93.3941 267.026L93.0723 266.083C93.6516 265.975 94.0163 265.997 94.1021 266.168C94.1665 266.34 93.9519 266.64 93.4799 266.983L93.1581 266.04C93.8446 265.675 94.9603 265.289 96.2476 264.967C98.479 264.431 100.388 264.324 100.496 264.753V264.796Z" fill="#263238"/>
<path d="M103.585 286.048C103.757 286.456 101.547 287.721 98.6718 288.836C95.7968 289.973 93.3294 290.552 93.1578 290.144C92.9862 289.737 95.196 288.493 98.071 287.356C100.946 286.22 103.413 285.641 103.585 286.048Z" fill="#263238"/>
<path d="M86.6141 276.611C86.7643 277.04 85.2839 277.898 83.3315 278.563C81.3791 279.228 79.6841 279.421 79.5339 279.013C79.3837 278.584 80.8641 277.726 82.8166 277.062C84.769 276.397 86.464 276.204 86.6141 276.611Z" fill="#263238"/>
<path d="M87.902 233.378C87.7948 233.807 85.2416 233.55 82.2808 232.499C79.32 231.448 77.1744 230.032 77.3675 229.646C77.5606 229.239 79.9422 229.968 82.8171 230.976C85.6921 232.005 88.0093 232.928 87.902 233.357V233.378Z" fill="#263238"/>
<path d="M129.01 228.68C129.246 229.045 127.808 230.439 125.791 231.768C123.774 233.098 121.929 233.87 121.693 233.506C121.457 233.141 122.895 231.768 124.912 230.417C126.928 229.088 128.774 228.316 129.01 228.68Z" fill="#263238"/>
<path d="M131.242 250C131.328 250.429 129.826 251.115 127.852 251.522C125.9 251.93 124.247 251.908 124.14 251.479C124.054 251.05 125.556 250.364 127.53 249.957C129.483 249.549 131.135 249.571 131.242 250Z" fill="#263238"/>
<path d="M133.837 273.997C133.644 274.404 131.477 273.782 128.967 272.624C126.457 271.466 124.59 270.201 124.783 269.793C124.976 269.386 127.143 270.008 129.654 271.166C132.164 272.324 134.03 273.589 133.837 273.997Z" fill="#263238"/>
<path d="M128.344 297.331C128.001 297.61 126.585 296.452 125.19 294.758C123.795 293.042 122.937 291.434 123.259 291.155C123.602 290.876 125.018 292.034 126.413 293.728C127.807 295.444 128.666 297.052 128.344 297.331Z" fill="#263238"/>
<path d="M127.229 212.96C127.508 213.303 126.564 214.483 124.954 215.276C123.345 216.091 121.843 216.134 121.736 215.705C121.607 215.276 122.787 214.568 124.225 213.839C125.662 213.11 126.928 212.595 127.207 212.96H127.229Z" fill="#263238"/>
<path d="M147.375 234.471C147.525 234.878 145.658 235.908 143.105 236.251C140.552 236.615 138.492 236.122 138.514 235.693C138.535 235.243 140.509 234.985 142.891 234.664C145.272 234.342 147.225 234.042 147.375 234.471Z" fill="#263238"/>
<path d="M143.342 215.17C143.535 215.556 141.69 216.885 139.051 217.722C136.412 218.558 134.138 218.558 134.074 218.129C134.009 217.679 136.048 216.993 138.558 216.199C141.068 215.406 143.128 214.784 143.321 215.191L143.342 215.17Z" fill="#263238"/>
<path d="M151.774 264.388C151.774 264.817 148.599 265.095 144.78 264.388C140.961 263.701 138.086 262.329 138.236 261.921C138.386 261.492 141.369 262.157 145.059 262.801C148.749 263.487 151.774 263.916 151.753 264.366L151.774 264.388Z" fill="#263238"/>
<path d="M144.286 292.441C144.028 292.784 141.69 291.412 139.373 289.074C137.034 286.737 135.682 284.399 136.026 284.142C136.39 283.863 138.257 285.686 140.51 287.937C142.762 290.211 144.565 292.077 144.286 292.441Z" fill="#263238"/>
<path d="M111.373 192.328C111.609 192.671 104.979 195.352 97.3195 203.437C89.66 211.33 81.7645 225.27 79.8121 242.105C78.8895 250.469 79.6834 258.576 80.8634 265.803C82.1078 273.031 83.7813 279.464 85.3046 284.826C86.8494 290.188 88.2654 294.477 89.2095 297.436C90.1535 300.417 90.6684 302.069 90.5611 302.112C90.4539 302.155 89.7673 300.568 88.6302 297.651C87.4931 294.734 85.9268 290.488 84.2319 285.148C82.5584 279.808 80.7776 273.374 79.4259 266.06C78.1386 258.769 77.2804 250.533 78.2244 241.933C80.2197 224.712 88.48 210.515 96.5042 202.665C100.495 198.676 104.25 196.017 106.996 194.473C108.326 193.636 109.463 193.186 110.214 192.8C110.965 192.457 111.373 192.285 111.394 192.35L111.373 192.328Z" fill="#263238"/>
<path d="M133.215 303.121C132.872 302.95 136.819 296.859 140.424 285.922C144.136 275.091 147.204 259.071 144.736 241.678C143.578 232.992 141.067 224.95 137.914 218.087C134.631 211.31 130.404 205.755 126.285 201.873C122.015 198.099 117.81 195.933 114.871 194.668C111.91 193.424 110.129 193.145 110.151 193.016C110.151 192.973 110.601 192.995 111.459 193.123C112.296 193.274 113.54 193.552 115.085 194.11C118.153 195.225 122.487 197.263 127.014 201.037C131.413 204.962 135.768 210.495 139.244 217.465C142.548 224.456 145.144 232.627 146.324 241.463C148.834 259.199 145.53 275.456 141.497 286.308C140.595 289.074 139.415 291.455 138.557 293.578C137.527 295.637 136.669 297.438 135.897 298.854C134.266 301.663 133.322 303.186 133.236 303.121H133.215Z" fill="#263238"/>
<path d="M71.123 299.344H159.497L160.033 317.016H71.123V299.344Z" fill="#ABFF00"/>
<path d="M78.6328 308.18L83.7177 362.139H148.319L153.49 308.759L78.6328 308.18Z" fill="#ABFF00"/>
<path d="M160.033 317.231C160.033 317.681 140.144 318.025 115.6 318.025C91.055 318.025 71.166 317.66 71.166 317.231C71.166 316.802 91.055 316.438 115.6 316.438C140.144 316.438 160.033 316.802 160.033 317.231Z" fill="#263238"/>
<path d="M151.044 333.66C151.044 333.66 150.529 334.947 149.156 337.028C147.761 339.086 145.573 342.003 142.312 345.113L141.904 345.499L141.496 345.07C137.248 340.609 131.391 335.14 124.182 329.929L125.169 329.886C122.702 332.052 120.127 334.304 117.488 336.62C114.355 339.344 111.309 342.003 108.412 344.512L107.919 344.941L107.425 344.512C101.933 339.88 96.9124 335.676 92.6643 332.116L93.5225 332.031C90.4759 335.741 87.9227 338.872 85.8845 341.338C84.0393 343.526 82.988 344.684 82.8807 344.62C82.7949 344.555 83.6746 343.225 85.3481 340.931C87.2576 338.379 89.682 335.14 92.557 331.301L92.9218 330.808L93.4152 331.216C97.7277 334.711 102.813 338.829 108.391 343.354H107.383C110.279 340.824 113.304 338.164 116.415 335.44C119.054 333.124 121.65 330.894 124.118 328.728L124.59 328.32L125.083 328.685C132.356 334.025 138.171 339.687 142.312 344.319H141.496C148.04 338.336 150.765 333.467 151.022 333.66H151.044Z" fill="#263238"/>
</g>
<defs>
<clipPath id="clip0_620_11383">
<rect width="1503" height="363" fill="white"/>
</clipPath>
</defs>
</svg>
