<svg width="1687" height="70" viewBox="0 0 1687 70" fill="none" xmlns="http://www.w3.org/2000/svg">
<g clip-path="url(#clip0_620_11277)">
<path d="M261.503 0.127644C264.694 1.51453 267.032 4.46482 268.213 7.74292C269.394 11.021 269.494 14.6017 269.092 18.0563C268.338 24.7638 264.544 31.5217 260.448 36.8676C254.818 31.9504 253.537 23.3517 253.16 18.9641C252.557 12.0044 255.673 -0.931433 261.503 0.127644Z" fill="#ABFF00"/>
<path d="M267.006 47.9374C266.102 44.155 267.685 39.9943 270.575 37.3971C273.465 34.7998 277.511 33.7155 281.381 34.0181C283.165 34.1442 285.1 34.6737 286.13 36.1615C287.085 37.5484 286.985 39.4648 286.206 40.9525C285.427 42.4403 284.095 43.5498 282.662 44.4576C277.787 47.534 272.51 49.6017 267.006 47.9374Z" fill="#ABFF00"/>
<path d="M259.794 68.4888C259.794 68.4888 259.844 67.9845 259.995 67.1019C260.171 66.1437 260.397 64.8829 260.674 63.3699C261.302 60.2683 262.081 55.8051 264.493 51.4931C266.881 47.1811 270.198 44.0039 272.987 42.4405C274.369 41.6336 275.601 41.1545 276.455 40.9023C276.882 40.751 277.234 40.7006 277.46 40.6502C277.686 40.5997 277.812 40.5745 277.812 40.5997C277.862 40.7006 275.877 41.0788 273.163 42.7431C270.449 44.3569 267.258 47.509 264.92 51.7453C262.558 55.9816 261.704 60.3692 261 63.4708C260.648 65.0342 260.372 66.295 260.171 67.1523C259.945 68.0097 259.819 68.4888 259.794 68.4888Z" fill="#263238"/>
<path d="M260.02 10.1872C260.02 10.1872 260.071 10.3889 260.096 10.7923C260.121 11.2462 260.146 11.801 260.196 12.507C260.272 13.9948 260.372 16.1886 260.447 18.8615C260.623 24.2325 260.749 31.6461 260.724 39.8413C260.699 48.0366 260.498 55.4501 260.272 60.8212C260.171 63.4941 260.045 65.6627 259.97 67.1756C259.92 67.8817 259.895 68.4616 259.844 68.8903C259.819 69.2938 259.794 69.4955 259.769 69.4955C259.744 69.4955 259.769 69.2938 259.769 68.8903C259.769 68.4364 259.769 67.8817 259.794 67.1504C259.844 65.587 259.895 63.4436 259.945 60.7959C260.071 55.4249 260.221 48.0114 260.246 39.8161C260.272 31.6209 260.196 24.2073 260.121 18.8363C260.071 16.1886 260.045 14.0452 260.02 12.4818C260.02 11.7758 260.02 11.1958 260.02 10.7419C260.02 10.3384 260.02 10.1367 260.045 10.1367L260.02 10.1872Z" fill="#263238"/>
<path d="M257.281 52.0225C255.999 43.9281 250.546 36.5902 243.183 33.0347C241.298 32.1269 238.861 31.547 237.303 32.9339C235.744 34.346 236.096 36.8676 236.85 38.8092C239.991 46.9288 248.46 52.6529 257.13 52.552" fill="#ABFF00"/>
<path d="M244.088 39.3906C244.088 39.3906 244.515 39.5419 245.269 39.9202C245.646 40.0967 246.124 40.3236 246.626 40.6514C247.129 40.9792 247.732 41.2818 248.335 41.7357C248.938 42.1644 249.642 42.6435 250.295 43.2235C250.999 43.7782 251.677 44.4339 252.381 45.1399C253.763 46.5772 255.17 48.2919 256.352 50.2588C257.533 52.2509 258.362 54.2934 258.965 56.1846C259.241 57.1428 259.493 58.0506 259.618 58.9331C259.819 59.7905 259.87 60.6226 259.945 61.3791C260.046 62.1356 260.021 62.8164 260.046 63.4216C260.071 64.0268 260.046 64.5311 259.995 64.9598C259.945 65.7919 259.895 66.271 259.845 66.2458C259.744 66.2458 259.92 64.3798 259.593 61.4295C259.493 60.6983 259.417 59.8913 259.191 59.034C259.04 58.1766 258.764 57.2689 258.488 56.3359C257.884 54.4699 257.03 52.4778 255.874 50.5109C254.693 48.5693 253.336 46.8798 252.004 45.4677C251.3 44.7617 250.647 44.106 249.969 43.5513C249.315 42.9713 248.662 42.4922 248.059 42.0383C245.646 40.2984 243.962 39.5167 243.988 39.4411L244.088 39.3906Z" fill="#263238"/>
<path d="M1687 68.89C1687 69.243 1309.32 69.5456 843.538 69.5456C377.754 69.5456 0 69.2682 0 68.89C0 68.5118 377.603 68.2344 843.538 68.2344C1309.47 68.2344 1687 68.537 1687 68.89Z" fill="#263238"/>
<path d="M318.044 48.2037C318.27 47.9516 322.165 51.5827 325.005 57.4076C327.895 63.2326 328.372 68.528 328.046 68.5532C327.669 68.6288 326.613 63.5856 323.824 57.9876C321.085 52.3644 317.717 48.4811 318.019 48.2037H318.044Z" fill="#263238"/>
<path d="M332.519 39.0001C332.896 39.0001 332.972 45.8084 333.675 54.1297C334.354 62.4511 335.409 69.1586 335.032 69.2342C334.706 69.3099 333.047 62.6528 332.369 54.2306C331.665 45.8336 332.193 38.9749 332.519 39.0001Z" fill="#263238"/>
<path d="M351.668 46.1367C352.02 46.3637 348.854 51.0539 347.019 57.6605C345.562 62.6029 345.285 67.0409 345.084 68.9321L345.009 69.5625L344.657 69.1086C344.255 68.6043 344.079 68.3017 344.129 68.2513C344.18 68.2008 344.506 68.3774 345.009 68.7556L344.582 68.9321C344.331 67.0409 344.255 62.4263 345.763 57.3075C347.698 50.4487 351.442 45.935 351.694 46.1619L351.668 46.1367Z" fill="#263238"/>
<path d="M1517.62 0.0495193C1520.81 1.43641 1523.15 4.3867 1524.33 7.66479C1525.51 10.9429 1525.61 14.5236 1525.21 17.9782C1524.46 24.6857 1520.66 31.4436 1516.57 36.7894C1510.94 31.8723 1509.66 23.2736 1509.28 18.886C1508.68 11.9263 1511.79 -1.00956 1517.62 0.0495193Z" fill="#ABFF00"/>
<path d="M1523.1 47.8593C1522.2 44.0769 1523.78 39.9162 1526.67 37.3189C1529.56 34.7217 1533.61 33.6374 1537.48 33.94C1539.26 34.0661 1541.2 34.5956 1542.23 36.0834C1543.18 37.4702 1543.08 39.3867 1542.3 40.8744C1541.52 42.3622 1540.19 43.4717 1538.76 44.3795C1533.88 47.4558 1528.61 49.5236 1523.1 47.8593Z" fill="#ABFF00"/>
<path d="M1515.89 68.4107C1515.89 68.4107 1515.94 67.9063 1516.09 67.0238C1516.27 66.0656 1516.49 64.8048 1516.77 63.2918C1517.4 60.1902 1518.18 55.7269 1520.59 51.415C1522.95 47.103 1526.29 43.9258 1529.08 42.3624C1530.47 41.5555 1531.7 41.0764 1532.55 40.8242C1532.98 40.6729 1533.33 40.6225 1533.56 40.572C1533.78 40.5216 1533.91 40.4964 1533.91 40.5216C1533.96 40.6225 1531.97 41.0007 1529.26 42.665C1526.54 44.2788 1523.35 47.4308 1521.02 51.6671C1518.65 55.9035 1517.8 60.2911 1517.1 63.3926C1516.74 64.956 1516.47 66.2169 1516.27 67.0742C1516.04 67.9316 1515.91 68.4107 1515.89 68.4107Z" fill="#263238"/>
<path d="M1516.12 10.109C1516.12 10.109 1516.17 10.3108 1516.19 10.7142C1516.22 11.1681 1516.24 11.7229 1516.29 12.4289C1516.37 13.9167 1516.47 16.1105 1516.54 18.7834C1516.72 24.1544 1516.84 31.568 1516.82 39.7632C1516.79 47.9585 1516.59 55.372 1516.37 60.743C1516.27 63.4159 1516.14 65.5845 1516.07 67.0975C1516.01 67.8036 1515.99 68.3835 1515.94 68.8122C1515.91 69.2157 1515.89 69.4174 1515.86 69.4174C1515.86 69.4174 1515.86 69.2157 1515.86 68.8122C1515.86 68.3583 1515.86 67.8036 1515.89 67.0723C1515.91 65.5089 1515.99 63.3655 1516.04 60.7178C1516.17 55.3468 1516.32 47.9332 1516.34 39.738C1516.37 31.5427 1516.29 24.1292 1516.22 18.7582C1516.17 16.1105 1516.14 13.9671 1516.12 12.4037C1516.12 11.6976 1516.12 11.1177 1516.12 10.6638C1516.12 10.2603 1516.12 10.0586 1516.14 10.0586L1516.12 10.109Z" fill="#263238"/>
<path d="M1513.38 51.9443C1512.09 43.85 1506.64 36.5121 1499.28 32.9566C1497.39 32.0488 1494.96 31.4688 1493.4 32.8557C1491.84 34.2678 1492.19 36.7894 1492.95 38.7311C1496.09 46.8507 1504.56 52.5747 1513.23 52.4739" fill="#ABFF00"/>
<path d="M1500.18 39.3125C1500.18 39.3125 1500.61 39.4638 1501.36 39.842C1501.74 40.0186 1502.22 40.2455 1502.72 40.5733C1503.22 40.9011 1503.83 41.2037 1504.43 41.6576C1505.03 42.0863 1505.74 42.5654 1506.39 43.1454C1507.09 43.7001 1507.77 44.3557 1508.48 45.0618C1509.86 46.4991 1511.27 48.2138 1512.45 50.1807C1513.63 52.1727 1514.46 54.2152 1515.06 56.1064C1515.34 57.0647 1515.59 57.9724 1515.71 58.855C1515.91 59.7124 1515.96 60.5445 1516.04 61.301C1516.14 62.0575 1516.12 62.7383 1516.14 63.3435C1516.17 63.9487 1516.14 64.453 1516.09 64.8817C1516.04 65.7138 1515.99 66.1929 1515.94 66.1677C1515.84 66.1677 1516.01 64.3017 1515.69 61.3514C1515.59 60.6201 1515.51 59.8132 1515.29 58.9559C1515.14 58.0985 1514.86 57.1907 1514.58 56.2577C1513.98 54.3917 1513.12 52.3997 1511.97 50.4328C1510.79 48.4912 1509.43 46.8017 1508.1 45.3896C1507.4 44.6835 1506.74 44.0279 1506.06 43.4732C1505.41 42.8932 1504.76 42.4141 1504.15 41.9602C1501.74 40.2203 1500.06 39.4386 1500.08 39.3629L1500.18 39.3125Z" fill="#263238"/>
</g>
<defs>
<clipPath id="clip0_620_11277">
<rect width="1687" height="70" fill="white"/>
</clipPath>
</defs>
</svg>
