<svg width="260" height="44" viewBox="0 0 260 44" fill="none" xmlns="http://www.w3.org/2000/svg">
<rect width="44" height="44" rx="22" fill="#FDC933"/>
<path d="M25.4757 23L25.8906 20.1044H23.2968V18.2253C23.2968 17.4331 23.6591 16.6609 24.8208 16.6609H26V14.1956C26 14.1956 24.9299 14 23.9068 14C21.7707 14 20.3744 15.3869 20.3744 17.8975V20.1044H18V23H20.3744V30H23.2968V23H25.4757Z" fill="#242424"/>
<rect x="1" y="1" width="42" height="42" rx="21" stroke="white" stroke-opacity="0.2" stroke-width="2"/>
<rect x="54" width="44" height="44" rx="22" fill="#FDC933"/>
<rect width="16" height="16" transform="translate(68 14)" fill="#242424"/>
<path d="M82.3553 18.7901C82.3655 18.9301 82.3655 19.0701 82.3655 19.2101C82.3655 23.4801 79.066 28.4001 73.0355 28.4001C71.1777 28.4001 69.4518 27.8701 68 26.9501C68.264 26.9801 68.5177 26.9901 68.7919 26.9901C70.3248 26.9901 71.736 26.4801 72.8629 25.6101C71.4213 25.5801 70.2132 24.6501 69.7969 23.3701C70 23.4001 70.203 23.4201 70.4162 23.4201C70.7107 23.4201 71.0051 23.3801 71.2792 23.3101C69.7767 23.0101 68.6497 21.7101 68.6497 20.1401V20.1001C69.0862 20.3401 69.5939 20.4901 70.1319 20.5101C69.2487 19.9301 68.67 18.9401 68.67 17.8201C68.67 17.2201 68.8324 16.6701 69.1167 16.1901C70.7309 18.1501 73.1573 19.4301 75.8781 19.5701C75.8274 19.3301 75.7969 19.0801 75.7969 18.8301C75.7969 17.0501 77.2588 15.6001 79.0761 15.6001C80.0202 15.6001 80.873 15.9901 81.472 16.6201C82.2131 16.4801 82.9238 16.2101 83.5532 15.8401C83.3096 16.5901 82.7918 17.2201 82.1116 17.6201C82.7715 17.5501 83.4111 17.3701 83.9999 17.1201C83.5533 17.7601 82.9949 18.3301 82.3553 18.7901Z" fill="#DDDDDD"/>
<rect x="55" y="1" width="42" height="42" rx="21" stroke="white" stroke-opacity="0.2" stroke-width="2"/>
<rect x="108" width="44" height="44" rx="22" fill="#FDC933"/>
<g clip-path="url(#clip0_11_13498)">
<path d="M125.582 30H122.264V19.3176H125.582V30ZM123.921 17.8604C122.86 17.8604 122 16.9819 122 15.9211C122 15.4116 122.202 14.923 122.563 14.5627C122.923 14.2024 123.412 14 123.921 14C124.431 14 124.919 14.2024 125.28 14.5627C125.64 14.923 125.842 15.4116 125.842 15.9211C125.842 16.9819 124.981 17.8604 123.921 17.8604ZM137.997 30H134.687V24.7999C134.687 23.5606 134.662 21.9712 132.962 21.9712C131.237 21.9712 130.973 23.3177 130.973 24.7106V30H127.659V19.3176H130.841V20.7748H130.887C131.33 19.9355 132.412 19.0498 134.026 19.0498C137.383 19.0498 138 21.2605 138 24.132V30H137.997Z" fill="#242424"/>
</g>
<rect x="109" y="1" width="42" height="42" rx="21" stroke="white" stroke-opacity="0.2" stroke-width="2"/>
<rect x="162" width="44" height="44" rx="22" fill="#FDC933"/>
<g clip-path="url(#clip1_11_13498)">
<rect width="16" height="16" transform="translate(176 14)" fill="#242424"/>
<path d="M184 14C179.589 14 176 17.5888 176 22C176 26.4112 179.589 30 184 30C188.411 30 192 26.4112 192 22C192 17.5888 188.411 14 184 14ZM189.289 17.6892C190.241 18.852 190.817 20.333 190.832 21.9458C190.607 21.8982 188.348 21.44 186.074 21.7259C185.889 21.273 185.714 20.8745 185.474 20.3835C188 19.352 189.145 17.8841 189.289 17.6892ZM188.53 16.899C188.407 17.0741 187.378 18.4566 184.948 19.3674C183.829 17.3101 182.588 15.62 182.399 15.3671C184.566 14.8448 186.849 15.4081 188.53 16.899ZM181.095 15.8265C181.275 16.0735 182.496 17.7657 183.628 19.7784C180.432 20.6272 177.617 20.6149 177.311 20.6109C177.754 18.4905 179.183 16.7282 181.095 15.8265ZM177.167 22.0104C177.167 21.9405 177.168 21.871 177.17 21.8016C177.469 21.8077 180.781 21.8504 184.193 20.8292C184.389 21.212 184.576 21.6006 184.747 21.9888C182.276 22.6848 180.031 24.6832 178.923 26.5793C177.832 25.3679 177.167 23.7655 177.167 22.0104ZM179.806 27.4012C180.519 25.942 182.457 24.0585 185.211 23.1187C186.171 25.6117 186.568 27.7011 186.669 28.3006C184.472 29.2365 181.83 28.9797 179.806 27.4012ZM187.818 27.675C187.748 27.2593 187.384 25.259 186.49 22.803C188.632 22.4602 190.513 23.0213 190.747 23.0951C190.442 24.9964 189.351 26.6384 187.818 27.675Z" fill="#EA4C89"/>
</g>
<rect x="216" width="44" height="44" rx="22" fill="#FDC933"/>
<g clip-path="url(#clip2_11_13498)">
<path d="M231.125 14L230 16.7464V27.9714H234V30H236.25L238.374 27.9714H241.626L246 23.7929V14H231.125ZM244.501 23.075L242 25.4643H238L235.877 27.4929V25.4643H232.501V15.4321H244.501V23.075ZM242 18.1786V22.3536H240.501V18.1786H242ZM238 18.1786V22.3536H236.501V18.1786H238Z" fill="#242424"/>
</g>
<rect x="217" y="1" width="42" height="42" rx="21" stroke="white" stroke-opacity="0.2" stroke-width="2"/>
<defs>
<clipPath id="clip0_11_13498">
<rect width="16" height="16" fill="white" transform="translate(122 14)"/>
</clipPath>
<clipPath id="clip1_11_13498">
<rect width="16" height="16" fill="white" transform="translate(176 14)"/>
</clipPath>
<clipPath id="clip2_11_13498">
<rect width="16" height="16" fill="white" transform="translate(230 14)"/>
</clipPath>
</defs>
</svg>
