<svg width="258" height="389" viewBox="0 0 258 389" fill="none" xmlns="http://www.w3.org/2000/svg">
<g clip-path="url(#clip0_620_11504)">
<path d="M150.768 225.079C150.768 225.079 195.41 214.963 219.858 192.408C244.333 169.854 258.001 129.441 258.001 129.441C258.001 129.441 231.721 134.267 207.943 142.602C203.946 146.886 196.338 155.686 192.805 164.021C192.805 164.021 192.057 155.222 192.676 148.693C186.306 151.635 180.761 154.86 176.789 158.344C156.493 176.099 150.768 225.079 150.768 225.079Z" fill="#ABFF00"/>
<path d="M230.122 149.078C236.208 144.872 242.398 140.794 248.458 136.562C248.819 136.304 248.458 135.736 248.097 135.969C236.595 142.833 225.248 150.188 214.287 157.878C210.47 160.562 206.705 163.349 202.991 166.188C203.249 165.749 203.507 165.31 203.765 164.871C205.106 162.626 206.524 160.433 207.917 158.239C210.754 153.826 213.849 149.465 217.382 145.594C217.511 145.439 217.279 145.233 217.15 145.388C213.668 149.388 210.212 153.362 207.04 157.62C205.518 159.633 204.126 161.749 202.811 163.891C202.114 165 201.444 166.11 200.799 167.271C200.593 167.658 200.361 168.046 200.128 168.433C194.352 172.975 188.729 177.697 183.365 182.703C180.064 185.8 176.866 189 173.771 192.277C175.499 186.884 176.995 181.413 179.007 176.071C179.084 175.891 178.775 175.813 178.723 175.994C176.789 181.568 174.648 187.194 173.152 192.923C169.722 196.613 166.473 200.458 163.378 204.432C163.43 204.2 163.481 203.942 163.533 203.71C164.049 201.593 164.564 199.503 165.132 197.413C166.215 193.361 167.401 189.361 168.768 185.387C171.553 177.258 175.19 169.336 180.76 162.73C180.889 162.575 180.657 162.368 180.528 162.523C171.811 172.845 166.705 185.232 163.43 198.239C162.94 200.148 162.501 202.058 162.063 203.968C161.831 204.974 161.573 206.006 161.392 207.064C160.051 208.896 158.71 210.729 157.447 212.613C149.71 224.148 143.649 236.767 138.568 249.67C132.843 264.199 128.382 279.218 124.255 294.289C124.178 294.573 124.616 294.676 124.719 294.392C133.436 268.25 142.36 241.748 157.318 218.393C160.464 213.464 163.894 208.716 167.504 204.122C174.855 203.709 182.256 202.11 189.219 199.787C196.905 197.232 204.177 193.671 210.96 189.284C214.88 186.755 218.465 183.787 222.101 180.845C222.282 180.716 222.101 180.458 221.921 180.613C215.886 185.723 208.639 189.723 201.47 193C194.274 196.303 186.692 198.884 178.955 200.561C175.654 201.284 172.327 201.8 168.974 202.264C173.101 197.181 177.511 192.303 182.127 187.684C183.623 186.187 185.196 184.742 186.744 183.271C191.876 179.529 197.549 176.562 203.249 173.826C210.573 170.291 217.769 166.549 224.99 162.859C229.064 160.768 233.139 158.652 237.24 156.639C237.42 156.562 237.24 156.304 237.085 156.381C229.761 159.917 222.308 163.246 214.906 166.626C207.943 169.826 200.876 173.026 194.197 176.794C193.913 176.949 193.629 177.129 193.346 177.31C199.381 172.046 205.647 167.013 212.043 162.188C217.975 157.723 223.958 153.336 230.07 149.104L230.122 149.078Z" fill="#263238"/>
<path d="M227.568 172.098C223.932 173.698 220.244 175.091 216.659 176.769C212.971 178.498 209.464 180.51 205.957 182.601C205.802 182.704 205.957 182.91 206.111 182.833C209.67 181.13 213.281 179.53 216.788 177.749C220.399 175.943 223.958 173.981 227.672 172.356C227.852 172.278 227.775 171.994 227.594 172.072L227.568 172.098Z" fill="#263238"/>
<path d="M5.75195 0C5.75195 0 18.2857 14.3481 19.0852 37.0833C19.24 41.0832 18.5952 46.6573 18.131 53.2378C34.7653 62.1409 47.2476 78.1406 47.2476 78.1406C37.7827 72.4633 24.8105 70.1666 17.8215 71.0956C18.0536 75.4052 18.5694 79.8954 19.5236 84.4373C22.6184 84.2567 28.5758 84.6695 38.4533 88.1792C38.4533 88.1792 28.7564 87.9211 21.3805 91.5856C29.3237 116.901 52.9987 142.94 118.298 153.985C118.298 153.985 130.909 109.624 106.719 62.0119C87.1958 23.5093 5.75195 0 5.75195 0Z" fill="#ABFF00"/>
<path d="M140.941 262.37C139.807 251.558 138.388 240.745 136.712 230.01C133.359 208.487 129.027 187.12 123.533 166.036C120.929 156.101 117.834 146.372 114.094 136.876C114.326 135.147 114.301 133.366 114.326 131.637C114.378 129.547 114.378 127.456 114.352 125.366C114.301 121.186 114.12 117.005 113.759 112.824C113.063 104.592 111.799 96.3343 109.736 88.3344C108.55 83.6893 107.157 79.0959 105.79 74.4766C105.739 74.296 105.455 74.3734 105.506 74.554C107.827 82.5281 109.143 90.8118 110.329 99.0181C111.49 107.147 112.238 115.353 112.521 123.534C112.599 125.779 112.65 128.024 112.65 130.269C112.65 131.224 112.599 132.179 112.573 133.159C109.349 125.392 105.739 117.779 101.561 110.373C94.9842 98.6568 87.402 87.5344 79.2009 76.9024C79.2783 75.6895 78.9172 74.425 78.6593 73.2379C78.3499 71.767 78.0404 70.3218 77.7051 68.8767C77.0346 65.8832 76.2867 62.9155 75.4872 59.9736C73.8625 54.064 71.7219 48.3351 69.8651 42.4771C69.8135 42.2965 69.5298 42.3739 69.5814 42.5545C71.3093 48.3351 72.444 54.3479 73.7851 60.2317C74.4298 63.1478 75.0746 66.0638 75.7193 68.9799C76.0288 70.425 76.3383 71.896 76.6478 73.3669C76.6478 73.4702 76.6993 73.5734 76.6993 73.7024C74.0688 70.3734 71.3609 67.0703 68.6014 63.8445C56.1192 49.2125 42.4506 35.7159 28.7047 22.2968C27.0026 20.6452 25.2747 19.0453 23.5726 17.4195C23.4178 17.2904 23.2373 17.4969 23.3663 17.6517C36.519 31.3805 49.4654 45.2642 61.7413 59.793C64.6555 63.251 67.5182 66.7348 70.3551 70.2702C68.8593 69.2638 67.3635 68.2831 65.8935 67.3283C62.1024 64.8509 58.2339 62.4252 54.2881 60.2059C50.3165 57.9865 46.3191 55.8188 42.2701 53.806C38.0922 51.7415 33.6048 50.0383 29.5558 47.6899C29.3753 47.5867 29.2205 47.8706 29.401 47.948C33.579 49.6512 37.4474 52.2576 41.3159 54.5543C45.2875 56.9027 49.2591 59.2768 53.1534 61.7542C56.996 64.18 60.8387 66.58 64.6555 69.0831C67.8277 71.1476 70.9482 73.3927 74.2493 75.3024C81.7799 85.0571 88.8721 95.173 95.1647 105.779C99.1364 112.463 102.747 119.302 105.971 126.295C105.197 125.96 104.397 125.624 103.624 125.289C101.638 124.411 99.6264 123.508 97.6406 122.631C93.7979 120.927 89.9294 119.25 86.0868 117.573C78.7625 114.373 71.3351 111.457 64.1398 107.973C60.1166 106.012 56.145 103.947 52.4054 101.47C52.2507 101.366 52.096 101.625 52.2507 101.728C65.6356 110.966 80.6452 117.469 95.4742 124.024L101.896 126.863C103.65 127.637 105.429 128.514 107.26 129.211C111.644 139.017 115.332 149.108 118.298 159.507C124.256 180.255 128.769 201.468 132.508 222.732C136.248 244.074 138.775 265.57 140.735 287.144C140.967 289.828 141.225 292.538 141.535 295.221C141.664 296.305 143.237 296.305 143.237 295.17C143.108 284.228 141.999 273.235 140.864 262.344L140.941 262.37Z" fill="#263238"/>
<path d="M101.199 81.9092C100.013 75.277 98.2335 68.7739 96.454 62.2708C96.4024 62.0901 96.1187 62.1676 96.1703 62.3482C97.8208 68.7223 99.0072 75.2512 100.193 81.7285C101.406 88.3349 102.489 94.967 103.417 101.625C103.417 101.728 103.598 101.728 103.598 101.625C103.159 95.0186 102.36 88.4381 101.199 81.9092Z" fill="#263238"/>
<path d="M73.0621 99.9201C68.6263 96.7976 63.6747 94.3976 58.852 91.9203C56.4794 90.6816 54.0552 89.5203 51.6567 88.359C49.1809 87.1462 46.5761 86.1397 44.1261 84.901C43.9456 84.8236 43.8166 85.0817 43.9714 85.1591C46.3698 86.3462 48.6135 87.8171 50.9604 89.0816C53.3846 90.3977 55.7831 91.7396 58.2073 93.0557C62.9784 95.6105 67.6721 98.475 72.7011 100.539C73.1395 100.72 73.449 100.178 73.0621 99.8943V99.9201Z" fill="#263238"/>
<path opacity="0.1" d="M151.566 147.716C151.566 147.716 192.856 137.833 211.837 110.117C229.941 83.6401 235.796 38.5054 236.26 34.5312C235.512 38.1699 227.001 77.6273 198.865 96.0012C177.33 110.091 156.544 121.652 151.566 147.716Z" fill="#263238"/>
<path d="M189.683 76.3089C182.41 83.3023 176.968 91.5602 174.467 101.418C174.467 101.496 174.57 101.547 174.596 101.47C177.69 92.2828 182.823 83.2507 189.889 76.5669C190.044 76.4379 189.837 76.2057 189.683 76.3347V76.3089Z" fill="#263238"/>
<path d="M151.566 147.715C151.566 147.715 192.855 137.831 211.836 110.116C229.94 83.6388 235.795 38.5041 236.259 34.53C236.31 34.3493 236.31 34.2461 236.31 34.2461C236.31 34.2461 216.504 62.4263 195.692 69.6003C174.879 76.7744 145.608 101.651 151.566 147.689V147.715Z" fill="#ABFF00"/>
<path d="M228.987 49.8065C225.144 57.3161 221.147 64.774 216.221 71.6642C211.424 78.348 205.647 84.0511 199.225 89.1607C193.603 93.6251 187.672 97.6509 181.998 102.038C182.05 101.96 182.075 101.909 182.127 101.831C183.184 100.257 184.345 98.7089 185.505 97.2122C187.878 94.1929 190.457 91.3284 193.062 88.5156C198.194 82.9415 203.429 77.4706 208.046 71.4578C210.599 68.1288 212.842 64.5676 214.673 60.7741C214.751 60.5934 214.467 60.4902 214.39 60.6709C207.684 74.6319 194.3 83.5866 184.757 95.38C183.391 97.0574 182.127 98.7864 180.941 100.593C180.115 101.883 179.109 103.302 178.568 104.799C173.384 109.057 168.562 113.702 164.487 119.044C164.822 116.334 165.415 113.625 166.137 111.018C167.169 107.328 168.51 103.844 170.522 100.541C170.625 100.386 170.367 100.206 170.264 100.361C168.329 103.612 166.576 107.122 165.441 110.76C164.538 113.702 164.1 116.67 163.945 119.689C163.945 119.689 163.945 119.689 163.945 119.715C161.882 122.476 160.051 125.392 158.375 128.386C158.555 127.508 158.71 126.631 158.89 125.728C159.716 121.599 160.618 117.496 161.676 113.444C163.842 105.212 166.756 97.2122 171.605 90.1671C171.708 90.0123 171.45 89.8317 171.347 89.9865C166.576 96.9541 162.939 104.748 160.335 112.773C159.019 116.825 157.962 120.954 157.034 125.108C156.569 127.147 156.182 129.186 155.77 131.225C155.564 132.283 155.331 133.366 155.177 134.45C150.947 143.379 147.981 152.953 145.66 162.476C141.457 179.611 138.826 197.211 136.84 214.733C134.777 233.133 133.694 251.713 134.003 270.216C134.029 272.538 134.184 274.861 134.313 277.183C134.339 277.777 135.241 277.88 135.267 277.235C135.68 268.074 135.912 258.887 136.453 249.726C136.995 240.539 137.794 231.404 138.774 222.268C140.709 204.333 143.468 186.449 147.388 168.824C150.741 153.702 155.074 138.502 163.326 125.263C167.453 118.631 172.404 112.747 178.233 107.535C184.035 102.322 190.354 97.7799 196.466 92.9542C202.527 88.1543 208.381 82.9415 213.203 76.877C218.387 70.3223 222.488 62.9418 226.33 55.5355C227.31 53.6516 228.29 51.7936 229.296 49.9356C229.399 49.7549 229.141 49.6001 229.038 49.7549L228.987 49.8065Z" fill="#263238"/>
<path d="M221.868 55.8717C219.212 61.4716 216.04 66.7877 212.661 71.9747C212.584 72.1037 212.765 72.2328 212.842 72.1037C216.453 67.0199 219.444 61.5749 222.152 55.975C222.229 55.7943 221.946 55.6911 221.868 55.8717Z" fill="#263238"/>
<path d="M0.000810748 129.441C0.000810748 129.441 -0.643932 188.176 34.43 205.13C69.5298 222.111 88.3305 207.969 112.186 213.646C112.186 213.646 112.186 213.646 112.134 213.621C111.206 212.227 94.1847 187.737 67.1314 181.002C39.3043 174.034 8.43404 153.906 0.000810748 129.441Z" fill="#ABFF00"/>
<path opacity="0.1" d="M0.000810752 129.441C0.000810752 129.441 -0.64393 188.176 34.43 205.13C69.5298 222.111 88.3305 207.969 112.186 213.646C112.186 213.646 112.186 213.646 112.134 213.621C111.154 213.13 93.7205 204.434 72.2377 201.853C50.136 199.169 7.84087 184.718 0.000810752 129.441Z" fill="#ABFF00"/>
<path d="M114.506 214.679C110.328 210.912 105.635 207.66 100.554 205.209C99.8062 204.847 99.0325 204.563 98.2588 204.228C97.8977 203.763 97.4851 203.325 97.0725 202.886C96.0151 201.776 94.9319 200.744 93.7714 199.738C91.5793 197.854 89.2066 196.125 86.705 194.628C80.9023 191.196 74.5323 188.822 68.5749 185.648C68.3943 185.544 68.2654 185.828 68.4201 185.906C71.3602 187.428 74.197 189.106 77.0597 190.783C79.845 192.409 82.6818 193.957 85.3897 195.712C87.814 197.286 90.1608 199.015 92.3272 200.925C92.9461 201.467 93.5393 202.06 94.1325 202.654C90.264 201.338 86.2924 200.305 82.2692 199.505C75.8476 198.215 69.3486 197.286 62.9269 195.918C59.7806 195.247 56.66 194.396 53.6169 193.415C50.7026 191.067 47.7884 188.744 45.0289 186.19C41.702 183.119 38.6331 179.79 35.9509 176.125C35.8478 175.97 35.5641 176.125 35.693 176.28C40.0257 181.88 44.6678 187.506 50.0837 192.177C48.5621 191.609 47.0663 190.989 45.5963 190.319C33.6814 184.899 23.0561 176.28 15.6802 165.416C15.5771 165.261 15.3192 165.416 15.4223 165.571C21.844 174.887 29.9935 182.835 39.6131 188.822C44.4357 191.815 49.5163 194.267 54.9063 196.073C61.0959 198.138 67.4917 199.376 73.9133 200.564C80.1802 201.725 86.4729 202.938 92.5077 205.002C98.1041 206.912 103.365 209.673 108.11 213.208C117.137 219.97 124.126 229.234 129.129 239.298C135.783 252.64 138.955 267.53 140.709 282.24C140.786 282.859 141.766 282.859 141.714 282.24C140.064 257.543 133.462 231.866 114.455 214.731L114.506 214.679Z" fill="#263238"/>
<path d="M73.7836 195.532C72.0299 192.719 69.3993 190.629 66.5624 188.977C63.2356 187.068 60.2698 185.003 57.9745 181.881C57.8713 181.726 57.5876 181.881 57.7166 182.035C59.8313 184.771 62.3845 186.99 65.2987 188.822C68.3677 190.732 71.4625 192.616 73.5514 195.661C73.6546 195.79 73.8609 195.661 73.7836 195.532Z" fill="#263238"/>
<path d="M92.4043 258.035L94.0033 290.318L98.9033 389.001H172.507L177.407 290.318L179.006 258.035H92.4043Z" fill="#37474F"/>
<path d="M92.4043 258.035L94.0033 290.318H177.407L179.006 258.035H92.4043Z" fill="#263238"/>
<path d="M87.2464 275.375H184.164V244.563H87.2464V275.375Z" fill="#37474F"/>
</g>
<defs>
<clipPath id="clip0_620_11504">
<rect width="258" height="389" fill="white"/>
</clipPath>
</defs>
</svg>
