<svg width="48" height="48" viewBox="0 0 48 48" fill="none" xmlns="http://www.w3.org/2000/svg">
<rect width="48" height="48" rx="4" fill="#FFBD00"/>
<g clip-path="url(#clip0_11_13668)">
<path d="M32.0097 15.9902C31.9197 15.9002 31.8297 15.9002 31.7397 15.8102C31.6497 15.7202 31.4697 15.7202 31.2897 15.7202H31.1997H31.1097L16.2597 21.0302C15.9897 21.1202 15.7197 21.3902 15.7197 21.7502C15.7197 22.0202 15.8997 22.3802 16.1697 22.4702L22.6497 25.3502L25.5297 31.8302C25.6197 32.1002 25.8897 32.2802 26.2497 32.2802C26.5197 32.2802 26.7897 32.1002 26.9697 31.7402L32.1897 16.8002V16.7102C32.1897 16.7102 32.1897 16.6202 32.1897 16.5302C32.2797 16.3502 32.1897 16.0802 32.0097 15.9902ZM18.5097 21.8402L28.5897 18.3302L23.0997 23.8202L18.5097 21.8402ZM26.1597 29.4902L24.1797 24.9902L29.7597 19.4102L26.1597 29.4902Z" fill="white"/>
</g>
<defs>
<clipPath id="clip0_11_13668">
<rect width="18" height="18" fill="white" transform="translate(15 15)"/>
</clipPath>
</defs>
</svg>
