<svg width="46" height="183" viewBox="0 0 46 183" fill="none" xmlns="http://www.w3.org/2000/svg">
<path d="M21.8173 0.0276709C21.8173 0.0276709 48.7045 27.3105 44.1403 54.621C40.7103 75.097 42.4253 87.6316 44.6659 105.7C46.9065 123.769 44.0573 131.019 21.7066 147.787C21.7066 147.787 3.39456 142.031 1.70719 119.674C0.0198267 97.3162 6.82462 98.2293 1.70719 76.5082C-7.22755 38.5446 21.8173 0 21.8173 0V0.0276709Z" fill="#ABFF00"/>
<path d="M22.707 37.9648V182.514" stroke="#263238" stroke-miterlimit="10"/>
<path d="M11.6416 43.9414L22.7063 61.0139V70.9199L36.0669 54.0964" stroke="#263238" stroke-miterlimit="10"/>
<path d="M11.6416 70.918L22.7063 87.9905V97.8964L36.0669 81.0729" stroke="#263238" stroke-miterlimit="10"/>
<path d="M11.6416 97.8984L22.7063 114.971V124.877L36.0669 108.053" stroke="#263238" stroke-miterlimit="10"/>
</svg>
