<svg width="63" height="260" viewBox="0 0 63 260" fill="none" xmlns="http://www.w3.org/2000/svg">
<path d="M29.8758 0.0378907C29.8758 0.0378907 66.6943 37.3981 60.4443 74.7962C55.7473 102.835 58.0958 120 61.164 144.742C64.2322 169.485 60.3306 179.412 29.7243 202.374C29.7243 202.374 4.6484 194.493 2.33778 163.877C0.0271515 133.262 9.34541 134.512 2.33778 104.768C-9.89717 52.7817 29.8758 0 29.8758 0V0.0378907Z" fill="#ABFF00"/>
<path d="M29.6865 61.5742V259.515" stroke="#2D24A3" stroke-miterlimit="10"/>
<path d="M14.5352 69.7578L29.6868 93.1364V106.701L48.0203 83.6637" stroke="#2D24A3" stroke-miterlimit="10"/>
<path d="M14.5352 106.699L29.6868 130.078V143.643L48.0203 120.605" stroke="#2D24A3" stroke-miterlimit="10"/>
<path d="M14.5352 143.645L29.6868 167.023V180.588L48.0203 157.55" stroke="#2D24A3" stroke-miterlimit="10"/>
</svg>
