<svg width="63" height="260" viewBox="0 0 63 260" fill="none" xmlns="http://www.w3.org/2000/svg">
<path d="M29.8759 0.0378988C29.8759 0.0378988 66.6944 37.3981 60.4443 74.7962C55.7473 102.835 58.0958 120 61.164 144.742C64.2322 169.485 60.3307 179.412 29.7244 202.374C29.7244 202.374 4.6484 194.493 2.33777 163.877C0.0271497 133.262 9.34541 134.512 2.33777 104.768C-9.89717 52.7817 29.8759 0 29.8759 0V0.0378988Z" fill="#ABFF00"/>
<path d="M29.7246 61.5742V259.515" stroke="#263238" stroke-miterlimit="10"/>
<path d="M14.5723 69.7578L29.7239 93.0985V106.701L48.0195 83.6258" stroke="#263238" stroke-miterlimit="10"/>
<path d="M14.5723 106.699L29.7239 130.04V143.643L48.0195 120.567" stroke="#263238" stroke-miterlimit="10"/>
<path d="M14.5723 143.645L29.7239 166.985V180.588L48.0195 157.513" stroke="#263238" stroke-miterlimit="10"/>
</svg>
