<svg width="16" height="16" viewBox="0 0 16 16" fill="none" xmlns="http://www.w3.org/2000/svg">
<path d="M14.3553 4.79009C14.3655 4.93008 14.3655 5.0701 14.3655 5.2101C14.3655 9.48008 11.066 14.4001 5.03553 14.4001C3.17766 14.4001 1.45178 13.8701 0 12.9501C0.263969 12.9801 0.51775 12.9901 0.791875 12.9901C2.32484 12.9901 3.73603 12.4801 4.86294 11.6101C3.42131 11.5801 2.21319 10.6501 1.79694 9.3701C2 9.40008 2.20303 9.42008 2.41625 9.42008C2.71066 9.42008 3.00509 9.38007 3.27919 9.3101C1.77666 9.01008 0.649719 7.71009 0.649719 6.14009V6.10011C1.08625 6.34011 1.59391 6.49011 2.13194 6.51008C1.24869 5.93007 0.670031 4.94008 0.670031 3.82008C0.670031 3.22009 0.832437 2.67009 1.11672 2.19008C2.73094 4.15008 5.15734 5.43006 7.87812 5.57008C7.82737 5.33008 7.79691 5.08011 7.79691 4.8301C7.79691 3.05008 9.25884 1.6001 11.0761 1.6001C12.0202 1.6001 12.873 1.9901 13.472 2.6201C14.2131 2.4801 14.9238 2.21009 15.5532 1.8401C15.3096 2.59012 14.7918 3.22012 14.1116 3.62009C14.7715 3.55012 15.4111 3.37008 15.9999 3.12011C15.5533 3.76008 14.9949 4.33006 14.3553 4.79009Z" fill="black"/>
</svg>
